<svg width="250" height="204" viewBox="0 0 250 204" fill="none" xmlns="http://www.w3.org/2000/svg">
<path d="M250 183.528H0V203.084H250V183.528Z" fill="white"/>
<path d="M156.418 50.5127C156.418 50.5127 175.852 54.4014 201.106 29.1426C212.763 44.6885 220.533 52.457 220.533 52.457V75.7793C228.34 67.7354 233.164 56.7812 233.164 44.6885C233.164 20.0063 213.153 0 188.479 0C163.797 0 143.791 20.0063 143.791 44.6885C143.791 56.7812 148.619 67.7354 156.418 75.7793V50.5127H156.418Z" fill="white"/>
<path d="M218.447 102.069C216.358 103.211 203.776 129.681 195.591 147.262L193.421 116.637H183.533L181.363 147.273C173.178 129.688 160.596 103.211 158.507 102.069C128.302 112.966 126.954 137.377 126.954 175.706H250C250 137.377 248.652 112.966 218.447 102.069Z" fill="white"/>
<path d="M195.541 110.716L196.791 99.4375H180.168L181.413 110.716H195.541Z" fill="white"/>
<path d="M48.8901 131.354C31.3965 131.354 17.2148 145.532 17.2148 163.029H80.5654C80.5654 145.532 66.3838 131.354 48.8901 131.354Z" fill="white"/>
<path d="M55.5815 118.864H42.1982V127.787H55.5815V118.864Z" fill="white"/>
<path d="M18.1084 175.966H79.6719C82.3838 175.966 84.5801 173.766 84.5801 171.058C84.5801 168.35 82.3838 166.149 79.6719 166.149H18.1084C15.3965 166.149 13.2002 168.35 13.2002 171.058C13.2002 173.766 15.3965 175.966 18.1084 175.966Z" fill="white"/>
</svg>
