<svg width="39" height="39" viewBox="0 0 39 39" fill="none" xmlns="http://www.w3.org/2000/svg">
<path d="M10.9508 35.6688C9.10254 35.6694 7.29562 35.1217 5.75871 34.095C4.2218 33.0683 3.02398 31.6088 2.3168 29.9011C1.60963 28.1934 1.42489 26.3144 1.78595 24.5017C2.14702 22.689 3.03767 21.0242 4.3452 19.7178L18.1333 5.92809C18.362 5.69945 18.6721 5.57101 18.9954 5.57101C19.3187 5.57101 19.6288 5.69945 19.8575 5.92809C20.0861 6.15672 20.2145 6.46681 20.2145 6.79015C20.2145 7.11349 20.0861 7.42358 19.8575 7.65221L6.0677 21.4403C5.4001 22.0757 4.86641 22.8382 4.49806 23.6829C4.12971 24.5277 3.93417 25.4376 3.92294 26.3592C3.91172 27.2807 4.08504 28.1951 4.4327 29.0486C4.78036 29.9021 5.29533 30.6774 5.94726 31.3288C6.59919 31.9801 7.37489 32.4945 8.22867 32.8414C9.08245 33.1884 9.99704 33.3609 10.9185 33.3489C11.84 33.3369 12.7498 33.1406 13.5943 32.7716C14.4388 32.4025 15.2008 31.8682 15.8356 31.2001L33.6456 13.3901C34.4617 12.5473 34.9138 11.4175 34.9044 10.2443C34.895 9.07118 34.4248 7.94875 33.5952 7.11918C32.7657 6.28962 31.6432 5.8194 30.4701 5.80998C29.2969 5.80057 28.1671 6.2527 27.3243 7.06884L12.9626 21.4403C12.5816 21.8213 12.3676 22.338 12.3676 22.8768C12.3676 23.4156 12.5816 23.9324 12.9626 24.3133C13.3436 24.6943 13.8603 24.9084 14.3991 24.9084C14.9379 24.9084 15.4546 24.6943 15.8356 24.3133L25.025 15.1223C25.1373 15.0059 25.2718 14.913 25.4204 14.849C25.5691 14.7851 25.729 14.7514 25.8908 14.7499C26.0526 14.7484 26.2131 14.7792 26.3629 14.8404C26.5128 14.9016 26.6489 14.992 26.7634 15.1064C26.8778 15.2208 26.9684 15.3568 27.0298 15.5066C27.0911 15.6563 27.122 15.8168 27.1207 15.9786C27.1194 16.1404 27.0858 16.3004 27.022 16.4491C26.9582 16.5978 26.8654 16.7324 26.7491 16.8448L17.5581 26.0375C16.72 26.8757 15.5833 27.3467 14.398 27.3469C13.2127 27.347 12.0759 26.8763 11.2376 26.0383C10.3994 25.2002 9.92838 24.0635 9.92823 22.8782C9.92808 21.6929 10.3988 20.5561 11.2368 19.7178L25.6018 5.36259C26.8969 4.06729 28.6535 3.33951 30.4852 3.33936C32.3169 3.3392 34.0736 4.06669 35.3689 5.36177C36.6642 6.65686 37.392 8.41346 37.3921 10.2451C37.3923 12.0768 36.6648 13.8335 35.3697 15.1288L17.5597 32.9323C16.6937 33.8027 15.6637 34.4927 14.5293 34.9624C13.3949 35.4321 12.1786 35.6722 10.9508 35.6688Z" fill="black"/>
</svg>
