<svg width="200" height="200" viewBox="0 0 200 200" fill="none" xmlns="http://www.w3.org/2000/svg">
<path d="M34.375 168.75H53.125C54.8531 168.75 56.25 167.353 56.25 165.625V150C56.25 148.272 54.8531 146.875 53.125 146.875H34.375C32.6469 146.875 31.25 148.272 31.25 150V165.625C31.25 167.353 32.6469 168.75 34.375 168.75ZM37.5 153.125H50V162.5H37.5V153.125Z" fill="white"/>
<path d="M71.875 168.75H90.625C92.3531 168.75 93.75 167.353 93.75 165.625V150C93.75 148.272 92.3531 146.875 90.625 146.875H71.875C70.1469 146.875 68.75 148.272 68.75 150V165.625C68.75 167.353 70.1469 168.75 71.875 168.75ZM75 153.125H87.5V162.5H75V153.125Z" fill="white"/>
<path d="M109.375 168.75H128.125C129.853 168.75 131.25 167.353 131.25 165.625V150C131.25 148.272 129.853 146.875 128.125 146.875H109.375C107.647 146.875 106.25 148.272 106.25 150V165.625C106.25 167.353 107.647 168.75 109.375 168.75ZM112.5 153.125H125V162.5H112.5V153.125Z" fill="white"/>
<path d="M34.375 134.375H53.125C54.8531 134.375 56.25 132.978 56.25 131.25V115.625C56.25 113.897 54.8531 112.5 53.125 112.5H34.375C32.6469 112.5 31.25 113.897 31.25 115.625V131.25C31.25 132.978 32.6469 134.375 34.375 134.375ZM37.5 118.75H50V128.125H37.5V118.75Z" fill="white"/>
<path d="M71.875 134.375H90.625C92.3531 134.375 93.75 132.978 93.75 131.25V115.625C93.75 113.897 92.3531 112.5 90.625 112.5H71.875C70.1469 112.5 68.75 113.897 68.75 115.625V131.25C68.75 132.978 70.1469 134.375 71.875 134.375ZM75 118.75H87.5V128.125H75V118.75Z" fill="white"/>
<path d="M109.375 134.375H128.125C129.853 134.375 131.25 132.978 131.25 131.25V115.625C131.25 113.897 129.853 112.5 128.125 112.5H109.375C107.647 112.5 106.25 113.897 106.25 115.625V131.25C106.25 132.978 107.647 134.375 109.375 134.375ZM112.5 118.75H125V128.125H112.5V118.75Z" fill="white"/>
<path d="M146.875 134.375H165.625C167.353 134.375 168.75 132.978 168.75 131.25V115.625C168.75 113.897 167.353 112.5 165.625 112.5H146.875C145.147 112.5 143.75 113.897 143.75 115.625V131.25C143.75 132.978 145.147 134.375 146.875 134.375ZM150 118.75H162.5V128.125H150V118.75Z" fill="white"/>
<path d="M34.375 100H53.125C54.8531 100 56.25 98.6031 56.25 96.875V81.25C56.25 79.5219 54.8531 78.125 53.125 78.125H34.375C32.6469 78.125 31.25 79.5219 31.25 81.25V96.875C31.25 98.6031 32.6469 100 34.375 100ZM37.5 84.375H50V93.75H37.5V84.375Z" fill="white"/>
<path d="M71.875 100H90.625C92.3531 100 93.75 98.6031 93.75 96.875V81.25C93.75 79.5219 92.3531 78.125 90.625 78.125H71.875C70.1469 78.125 68.75 79.5219 68.75 81.25V96.875C68.75 98.6031 70.1469 100 71.875 100ZM75 84.375H87.5V93.75H75V84.375Z" fill="white"/>
<path d="M109.375 100H128.125C129.853 100 131.25 98.6031 131.25 96.875V81.25C131.25 79.5219 129.853 78.125 128.125 78.125H109.375C107.647 78.125 106.25 79.5219 106.25 81.25V96.875C106.25 98.6031 107.647 100 109.375 100ZM112.5 84.375H125V93.75H112.5V84.375Z" fill="white"/>
<path d="M146.875 100H165.625C167.353 100 168.75 98.6031 168.75 96.875V81.25C168.75 79.5219 167.353 78.125 165.625 78.125H146.875C145.147 78.125 143.75 79.5219 143.75 81.25V96.875C143.75 98.6031 145.147 100 146.875 100ZM150 84.375H162.5V93.75H150V84.375Z" fill="white"/>
<path d="M187.5 12.5H165.625V9.375C165.625 4.19688 161.428 0 156.25 0C151.072 0 146.875 4.19688 146.875 9.375V12.5H53.125V9.375C53.125 4.19688 48.9281 0 43.75 0C38.5719 0 34.375 4.19688 34.375 9.375V12.5H12.5C5.59063 12.5 0 18.0906 0 25V187.5C0 194.409 5.59063 200 12.5 200H187.5C194.409 200 200 194.409 200 187.5V25C200 18.0906 194.409 12.5 187.5 12.5ZM153.125 9.375C153.125 7.64687 154.522 6.25 156.25 6.25C157.978 6.25 159.375 7.64687 159.375 9.375V18.75V31.25C159.375 32.9781 157.978 34.375 156.25 34.375C154.522 34.375 153.125 32.9781 153.125 31.25V18.75V9.375ZM40.625 9.375C40.625 7.64687 42.0219 6.25 43.75 6.25C45.4781 6.25 46.875 7.64687 46.875 9.375V18.75V31.25C46.875 32.9781 45.4781 34.375 43.75 34.375C42.0219 34.375 40.625 32.9781 40.625 31.25V18.75V9.375ZM193.75 187.5C193.75 190.95 190.95 193.75 187.5 193.75H12.5C9.05 193.75 6.25 190.95 6.25 187.5V53.125H193.75V187.5ZM193.75 46.875H6.25V25C6.25 21.55 9.05 18.75 12.5 18.75H34.375V31.25C34.375 36.4281 38.5719 40.625 43.75 40.625C48.9281 40.625 53.125 36.4281 53.125 31.25V18.75H146.875V31.25C146.875 36.4281 151.072 40.625 156.25 40.625C161.428 40.625 165.625 36.4281 165.625 31.25V18.75H187.5C190.95 18.75 193.75 21.55 193.75 25V46.875Z" fill="white"/>
</svg>
