<svg width="45" height="45" viewBox="0 0 45 45" fill="none" xmlns="http://www.w3.org/2000/svg">
<g clip-path="url(#clip0_645_320)">
<path d="M10.9964 10.702H11.6402C12.6186 10.702 13.4117 9.90862 13.4117 8.9305V4.04189V2.21331C13.4117 1.23518 12.6186 0.441895 11.6402 0.441895H10.9964C10.0181 0.441895 9.22501 1.23518 9.22501 2.21331V4.04198V8.9305C9.22501 9.90862 10.0181 10.702 10.9964 10.702Z" fill="black"/>
<path d="M33.7184 10.6581H34.3622C35.3405 10.6581 36.1336 9.86477 36.1336 8.88655V3.57787V2.16927C36.1336 1.19124 35.3405 0.397949 34.3622 0.397949H33.7184C32.7399 0.397949 31.9468 1.19124 31.9468 2.16927V3.57787V8.88646C31.947 9.86477 32.7401 10.6581 33.7184 10.6581Z" fill="black"/>
<path d="M42.1202 4.04199H37.5737V9.35058C37.5737 11.1214 36.1331 12.0982 34.3624 12.0982H33.7186C31.9478 12.0982 30.5071 10.6575 30.5071 8.88662V4.04199H14.8518V8.93051C14.8518 10.7014 13.4112 12.1421 11.6403 12.1421H10.9965C9.22575 12.1421 7.78514 10.7014 7.78514 8.93051V4.04199H2.87992C1.29196 4.04199 0 5.33395 0 6.92201V41.7221C0 43.3102 1.29196 44.6021 2.87992 44.6021H42.1202C43.7081 44.6021 45 43.3102 45 41.7221V6.92201C45.0002 5.33404 43.7081 4.04199 42.1202 4.04199ZM42.1202 41.7221H2.88001L2.87992 15.442H42.1207L42.1222 41.722C42.122 41.722 42.1215 41.7221 42.1202 41.7221Z" fill="#5A33E2"/>
<path d="M23.9868 24.2572H29.1578C29.3628 24.2572 29.529 24.091 29.529 23.886V19.4083C29.529 19.2033 29.3628 19.0371 29.1578 19.0371H23.9868C23.7818 19.0371 23.6156 19.2033 23.6156 19.4083V23.886C23.6156 24.091 23.7818 24.2572 23.9868 24.2572Z" fill="#8A84E2"/>
<path d="M32.4258 24.2572H37.5969C37.8019 24.2572 37.9681 24.091 37.9681 23.886V19.4083C37.9681 19.2033 37.8019 19.0371 37.5969 19.0371H32.4258C32.2208 19.0371 32.0547 19.2033 32.0547 19.4083V23.886C32.0547 24.091 32.2208 24.2572 32.4258 24.2572Z" fill="#8A84E2"/>
<path d="M7.10896 31.5873H12.2799C12.4849 31.5873 12.6511 31.4212 12.6511 31.2162V26.7384C12.6511 26.5334 12.4849 26.3672 12.2799 26.3672H7.10896C6.90398 26.3672 6.73779 26.5334 6.73779 26.7384V31.2162C6.73779 31.4212 6.90398 31.5873 7.10896 31.5873Z" fill="#8A84E2"/>
<path d="M15.5479 31.5873H20.7189C20.9239 31.5873 21.0901 31.4212 21.0901 31.2162V26.7384C21.0901 26.5334 20.9239 26.3672 20.7189 26.3672H15.5479C15.3429 26.3672 15.1767 26.5334 15.1767 26.7384V31.2162C15.1767 31.4212 15.3429 31.5873 15.5479 31.5873Z" fill="#8A84E2"/>
<path d="M23.9869 31.5873H29.1578C29.3628 31.5873 29.529 31.4212 29.529 31.2162V26.7384C29.529 26.5334 29.3628 26.3672 29.1578 26.3672H23.9869C23.7819 26.3672 23.6157 26.5334 23.6157 26.7384V31.2162C23.6157 31.4212 23.7819 31.5873 23.9869 31.5873Z" fill="#8A84E2"/>
<path d="M32.4258 31.5873H37.5969C37.8019 31.5873 37.9681 31.4212 37.9681 31.2162V26.7384C37.9681 26.5334 37.8019 26.3672 37.5969 26.3672H32.4258C32.2208 26.3672 32.0547 26.5334 32.0547 26.7384V31.2162C32.0547 31.4212 32.2208 31.5873 32.4258 31.5873Z" fill="#8A84E2"/>
<path d="M12.2799 33.6982H7.10905C6.90407 33.6982 6.73788 33.8644 6.73788 34.0694V38.5472C6.73788 38.7522 6.90407 38.9184 7.10905 38.9184H12.28C12.485 38.9184 12.6512 38.7522 12.6512 38.5472V34.0694C12.6511 33.8644 12.4849 33.6982 12.2799 33.6982Z" fill="#8A84E2"/>
<path d="M20.719 33.6982H15.548C15.343 33.6982 15.1768 33.8644 15.1768 34.0694V38.5472C15.1768 38.7522 15.343 38.9184 15.548 38.9184H20.719C20.924 38.9184 21.0902 38.7522 21.0902 38.5472V34.0694C21.0902 33.8644 20.924 33.6982 20.719 33.6982Z" fill="#8A84E2"/>
<path d="M29.158 33.6982H23.987C23.782 33.6982 23.6158 33.8644 23.6158 34.0694V38.5472C23.6158 38.7522 23.782 38.9184 23.987 38.9184H29.158C29.363 38.9184 29.5292 38.7522 29.5292 38.5472V34.0694C29.5292 33.8644 29.363 33.6982 29.158 33.6982Z" fill="#8A84E2"/>
<path d="M37.5969 33.6982H32.4258C32.2208 33.6982 32.0547 33.8644 32.0547 34.0694V38.5472C32.0547 38.7522 32.2208 38.9184 32.4258 38.9184H37.5969C37.8019 38.9184 37.9681 38.7522 37.9681 38.5472V34.0694C37.9681 33.8644 37.8019 33.6982 37.5969 33.6982Z" fill="#8A84E2"/>
</g>
<defs>
<clipPath id="clip0_645_320">
<rect width="45" height="45" fill="white"/>
</clipPath>
</defs>
</svg>
