<svg width="69" height="69" viewBox="0 0 69 69" fill="none" xmlns="http://www.w3.org/2000/svg">
<g clip-path="url(#clip0_627_933)">
<path d="M34.5 69C53.5538 69 69 53.5538 69 34.5C69 15.4462 53.5538 0 34.5 0C15.4462 0 0 15.4462 0 34.5C0 53.5538 15.4462 69 34.5 69Z" fill="#826AF9"/>
<path d="M25.6846 50.0631L43.4243 67.8028C58.1167 63.8848 69 50.4984 69 34.5C69 34.1735 69 33.847 69 33.5205L55.0694 20.6782L25.6846 50.0631Z" fill="#5A33E2"/>
<path d="M35.3708 42.2272C36.8944 43.7508 36.8944 46.3628 35.3708 47.8865L32.2146 51.0426C30.691 52.5663 28.079 52.5663 26.5553 51.0426L12.7336 37.112C11.2099 35.5884 11.2099 32.9764 12.7336 31.4527L15.8897 28.2966C17.4134 26.7729 20.0254 26.7729 21.549 28.2966L35.3708 42.2272Z" fill="white"/>
<path d="M47.4512 18.1751C48.9749 16.6514 51.5868 16.6514 53.1105 18.1751L56.2667 21.3312C57.7903 22.8549 57.7903 25.4669 56.2667 26.9905L32.3234 50.8249C30.7998 52.3486 28.1878 52.3486 26.6641 50.8249L23.508 47.6688C21.9843 46.1451 21.9843 43.5331 23.508 42.0095L47.4512 18.1751Z" fill="white"/>
</g>
<defs>
<clipPath id="clip0_627_933">
<rect width="69" height="69" fill="white"/>
</clipPath>
</defs>
</svg>
