<svg width="186" height="200" viewBox="0 0 186 200" fill="none" xmlns="http://www.w3.org/2000/svg">
<path fill-rule="evenodd" clip-rule="evenodd" d="M35.7144 0C16.0745 0 0 16.0745 0 35.7144V192.858C0.000565822 194.391 0.494106 195.883 1.40771 197.113C2.32132 198.344 3.60654 199.248 5.07351 199.692C6.54049 200.137 8.11143 200.097 9.55427 199.58C10.9971 199.063 12.2353 198.095 13.086 196.82L21.4287 184.306L29.7713 196.82C30.4237 197.798 31.3075 198.6 32.3443 199.155C33.381 199.71 34.5386 200 35.7144 200C36.8903 200 38.0479 199.71 39.0846 199.155C40.1214 198.6 41.0051 197.798 41.6576 196.82L50.0002 184.306L58.3429 196.82C58.9953 197.798 59.8791 198.6 60.9158 199.155C61.9526 199.71 63.1102 200 64.286 200C65.4618 200 66.6194 199.71 67.6562 199.155C68.6929 198.6 69.5767 197.798 70.2291 196.82L78.5718 184.306L86.9144 196.82C87.5668 197.798 88.4506 198.6 89.4874 199.155C90.5241 199.71 91.6817 200 92.8576 200C94.0334 200 95.191 199.71 96.2277 199.155C97.2645 198.6 98.1483 197.798 98.8007 196.82L107.143 184.306L115.486 196.82C116.337 198.095 117.575 199.063 119.018 199.58C120.461 200.097 122.032 200.137 123.498 199.692C124.965 199.248 126.251 198.344 127.164 197.113C128.078 195.883 128.571 194.391 128.572 192.858V107.143H178.572C180.467 107.143 182.283 106.391 183.623 105.051C184.962 103.711 185.715 101.895 185.715 100V35.7144C185.715 16.0745 169.641 0 150.001 0H35.7144ZM35.7144 14.2858H121.485C116.971 20.2666 114.286 27.69 114.286 35.7144V42.8573V100V169.267L113.086 167.467C112.434 166.489 111.55 165.687 110.514 165.132C109.477 164.577 108.319 164.287 107.143 164.287C105.968 164.287 104.81 164.577 103.773 165.132C102.736 165.687 101.853 166.489 101.2 167.467L92.8576 179.981L84.5149 167.467C83.8625 166.489 82.9787 165.687 81.9419 165.132C80.9052 164.577 79.7476 164.287 78.5718 164.287C77.396 164.287 76.2383 164.577 75.2016 165.132C74.1649 165.687 73.2811 166.489 72.6287 167.467L64.286 179.981L55.9433 167.467C55.2909 166.489 54.4071 165.687 53.3704 165.132C52.3337 164.577 51.176 164.287 50.0002 164.287C48.8244 164.287 47.6668 164.577 46.63 165.132C45.5933 165.687 44.7095 166.489 44.0571 167.467L35.7144 179.981L27.3718 167.467C26.7194 166.489 25.8356 165.687 24.7988 165.132C23.7621 164.577 22.6045 164.287 21.4287 164.287C20.2529 164.287 19.0952 164.577 18.0585 165.132C17.0218 165.687 16.138 166.489 15.4856 167.467L14.2858 169.267V35.7144C14.2858 23.7951 23.7951 14.2858 35.7144 14.2858ZM150.001 14.2858C161.92 14.2858 171.429 23.7951 171.429 35.7144V92.8575H128.572V42.8573V35.7144C128.572 23.7951 138.081 14.2858 150.001 14.2858Z" fill="white"/>
<path fill-rule="evenodd" clip-rule="evenodd" d="M35.7152 85.7148C33.8207 85.7148 32.0039 86.4674 30.6644 87.8069C29.3248 89.1465 28.5723 90.9633 28.5723 92.8577C28.5723 94.7521 29.3248 96.569 30.6644 97.9085C32.0039 99.2481 33.8207 100.001 35.7152 100.001H64.2867C66.1811 100.001 67.9979 99.2481 69.3375 97.9085C70.6771 96.569 71.4296 94.7521 71.4296 92.8577C71.4296 90.9633 70.6771 89.1465 69.3375 87.8069C67.9979 86.4674 66.1811 85.7148 64.2867 85.7148H35.7152Z" fill="white"/>
<path fill-rule="evenodd" clip-rule="evenodd" d="M35.7152 107.143C33.8207 107.143 32.0039 107.895 30.6644 109.235C29.3248 110.574 28.5723 112.391 28.5723 114.285C28.5723 116.18 29.3248 117.997 30.6644 119.336C32.0039 120.676 33.8207 121.428 35.7152 121.428H92.8583C94.7527 121.428 96.5695 120.676 97.909 119.336C99.2486 117.997 100.001 116.18 100.001 114.285C100.001 112.391 99.2486 110.574 97.909 109.235C96.5695 107.895 94.7527 107.143 92.8583 107.143H35.7152Z" fill="white"/>
<path fill-rule="evenodd" clip-rule="evenodd" d="M35.7152 128.572C33.8207 128.572 32.0039 129.325 30.6644 130.664C29.3248 132.004 28.5723 133.821 28.5723 135.715C28.5723 137.61 29.3248 139.426 30.6644 140.766C32.0039 142.105 33.8207 142.858 35.7152 142.858H92.8583C94.7527 142.858 96.5695 142.105 97.909 140.766C99.2486 139.426 100.001 137.61 100.001 135.715C100.001 133.821 99.2486 132.004 97.909 130.664C96.5695 129.325 94.7527 128.572 92.8583 128.572H35.7152Z" fill="white"/>
<path fill-rule="evenodd" clip-rule="evenodd" d="M35.7152 35.7139C33.8208 35.7141 32.0041 36.4667 30.6646 37.8062C29.3251 39.1457 28.5725 40.9624 28.5723 42.8568V71.4283C28.5725 73.3227 29.3251 75.1394 30.6646 76.4789C32.0041 77.8184 33.8208 78.571 35.7152 78.5712H64.2867C66.1811 78.571 67.9978 77.8184 69.3373 76.4789C70.6768 75.1394 71.4294 73.3227 71.4296 71.4283V42.8568C71.4294 40.9624 70.6768 39.1457 69.3373 37.8062C67.9978 36.4667 66.1811 35.7141 64.2867 35.7139H35.7152ZM42.858 49.9996H57.1438V64.2854H42.858V49.9996Z" fill="white"/>
</svg>
