<svg width="59" height="59" viewBox="0 0 59 59" fill="none" xmlns="http://www.w3.org/2000/svg">
<g clip-path="url(#clip0_521_3919)">
<path d="M39.6195 39.444C38.6627 39.3865 36.3623 39.5227 34.0585 39.9605C32.7258 38.6116 31.5718 36.9124 30.7157 35.5111C33.459 27.6233 31.7216 25.3813 29.383 25.3813C27.5466 25.3813 26.6296 27.3195 26.8337 29.4607C26.9369 30.5386 27.8497 32.8035 28.9733 34.9548C28.284 36.7677 27.0539 39.8318 25.8329 42.0493C24.4036 42.4836 23.1777 42.9662 22.2979 43.3734C17.9155 45.4114 17.5634 48.1327 18.4753 49.2858C20.2067 51.4763 23.8957 49.5864 27.5974 42.9662C30.1316 42.2456 33.4658 41.2855 33.7663 41.2855C33.801 41.2855 33.8485 41.2965 33.9035 41.3143C35.7509 42.9433 37.9328 44.8086 39.7287 45.0541C42.3272 45.4114 43.8064 43.5268 43.7039 42.3549C43.6022 41.1823 42.9173 39.642 39.6195 39.444ZM23.215 46.5848C22.1439 47.8584 20.4115 49.0799 19.8002 48.6737C19.188 48.2665 19.0864 47.0946 20.4632 45.7687C21.839 44.4445 24.142 43.757 24.4883 43.6283C24.8973 43.476 24.9989 43.6283 24.9989 43.8323C24.9989 44.0364 24.2851 45.3098 23.215 46.5848ZM27.9046 29.4598C27.8022 28.1847 28.0562 26.9622 29.1273 26.8097C30.1966 26.6557 30.7073 27.8791 30.2998 29.8663C29.8917 31.856 29.6869 33.1794 29.4836 33.3344C29.2797 33.4868 29.0772 32.9762 29.0772 32.9762C28.6684 32.1599 28.0063 30.7332 27.9046 29.4598ZM28.3127 41.437C28.8724 40.5183 30.3 36.7998 30.3 36.7998C30.6056 37.361 33 40.2127 33 40.2127C33 40.2127 29.3305 41.0298 28.3127 41.437ZM39.4205 43.066C37.8922 42.8646 35.2937 41.0272 35.2937 41.0272C34.9373 40.8749 38.1411 40.4397 39.3714 40.5184C40.9522 40.6209 41.5126 41.2838 41.5126 41.946C41.5126 42.6088 40.9522 43.2702 39.4205 43.066Z" fill="#5A33E2"/>
<path d="M52.5611 12.266L41.357 1.06094L40.2959 0H38.794H15.9444C10.5493 0 6.16022 4.39004 6.16022 9.7869V10.5354H4.71146V22.24H6.16022V48.5475C6.16022 53.9434 10.5495 58.3334 15.9445 58.3334H43.836C49.2328 58.3334 53.622 53.9434 53.622 48.5475V14.8289V13.3277L52.5611 12.266ZM43.8359 54.7095H15.9444C12.5407 54.7095 9.78224 51.951 9.78224 48.5473V22.2399H27.7049V10.5353H9.78224V9.78678C9.78224 6.38226 12.5407 3.62282 15.9444 3.62282H37.9269V10.5606C37.9269 13.3962 40.2273 15.695 43.0629 15.695H49.9998V48.5472C49.9998 51.9511 47.2404 54.7095 43.8359 54.7095ZM10.0363 18.9226V13.5046C10.0363 13.409 10.1141 13.331 10.2099 13.331H11.9312C12.2149 13.331 12.4765 13.3776 12.7102 13.4691C12.9414 13.5597 13.1445 13.6867 13.3139 13.8476C13.4849 14.0092 13.6162 14.2058 13.705 14.431C13.7939 14.6519 13.8397 14.8933 13.8397 15.1481C13.8397 15.4081 13.7939 15.651 13.7041 15.8695C13.6153 16.088 13.484 16.2818 13.3147 16.4453C13.1462 16.6079 12.9422 16.7357 12.7085 16.8246C12.4765 16.9135 12.2149 16.9584 11.9312 16.9584H11.2048V18.9227C11.2048 19.0184 11.127 19.0962 11.0313 19.0962H10.2101C10.1141 19.0962 10.0363 19.0183 10.0363 18.9226ZM15.345 18.9226V13.5046C15.345 13.409 15.4229 13.331 15.5186 13.331H17.4211C17.7826 13.331 18.101 13.3911 18.3694 13.5096C18.6413 13.6306 18.8842 13.8229 19.0926 14.0803C19.2001 14.2158 19.2856 14.3656 19.3473 14.5265C19.4075 14.6831 19.4532 14.8526 19.4828 15.0286C19.5116 15.203 19.5285 15.391 19.5344 15.5933C19.5395 15.7863 19.542 15.9938 19.542 16.2139C19.542 16.4331 19.5395 16.6407 19.5344 16.8337C19.5285 17.0353 19.5116 17.2241 19.4828 17.3993C19.4532 17.5754 19.4075 17.7439 19.3473 17.9005C19.2846 18.0631 19.1992 18.213 19.0932 18.3458C18.8834 18.6058 18.6402 18.798 18.3693 18.9173C18.1034 19.0358 17.7843 19.096 17.4209 19.096H15.5185C15.4228 19.0962 15.345 19.0183 15.345 18.9226ZM24.4122 15.7205C24.5079 15.7205 24.5857 15.7984 24.5857 15.8941V16.6324C24.5857 16.7281 24.5079 16.806 24.4122 16.806H22.3336V18.9228C22.3336 19.0185 22.2557 19.0963 22.16 19.0963H21.3386C21.2429 19.0963 21.1651 19.0185 21.1651 18.9228V13.5049C21.1651 13.4093 21.2429 13.3312 21.3386 13.3312H24.4892C24.5848 13.3312 24.6628 13.4091 24.6628 13.5049V14.2431C24.6628 14.3388 24.5849 14.4168 24.4892 14.4168H22.3336V15.7206L24.4122 15.7205Z" fill="#5A33E2"/>
<path d="M12.4663 15.6891C12.6043 15.5647 12.6711 15.3878 12.6711 15.1481C12.6711 14.9093 12.6042 14.7323 12.4663 14.6079C12.3224 14.4792 12.1327 14.4165 11.8854 14.4165H11.2047V15.8803H11.8854C12.1325 15.8804 12.3224 15.8179 12.4663 15.6891Z" fill="#5A33E2"/>
<path d="M17.7893 17.942C17.918 17.8937 18.0289 17.8158 18.128 17.7041C18.2356 17.5839 18.3033 17.4111 18.3296 17.1901C18.3592 16.9386 18.3735 16.6101 18.3735 16.2138C18.3735 15.8168 18.3592 15.4882 18.3296 15.2375C18.3033 15.0158 18.2356 14.8431 18.1288 14.7237C18.0298 14.6118 17.9154 14.5324 17.7902 14.4857C17.6555 14.4341 17.5015 14.4087 17.3297 14.4087H16.5135V18.0181H17.3297C17.5006 18.0182 17.6555 17.9928 17.7893 17.942Z" fill="#5A33E2"/>
</g>
<defs>
<clipPath id="clip0_521_3919">
<rect width="58.3333" height="58.3333" fill="white"/>
</clipPath>
</defs>
</svg>
