<svg width="85" height="85" viewBox="0 0 85 85" fill="none" xmlns="http://www.w3.org/2000/svg">
<circle cx="42.5" cy="42.5" r="42.5" fill="#8A84E2"/>
<path d="M65.1154 25H19.8846C19.3848 25 18.9054 25.2002 18.552 25.5565C18.1986 25.9128 18 26.3961 18 26.9V59.2C18 60.2078 18.3971 61.1744 19.104 61.887C19.8108 62.5996 20.7696 63 21.7692 63H63.2308C64.2304 63 65.1892 62.5996 65.896 61.887C66.6029 61.1744 67 60.2078 67 59.2V26.9C67 26.3961 66.8014 25.9128 66.448 25.5565C66.0946 25.2002 65.6152 25 65.1154 25ZM60.2696 28.8L42.5 45.2231L24.7304 28.8H60.2696ZM63.2308 59.2H21.7692V31.2201L41.2255 49.2012C41.5732 49.523 42.028 49.7016 42.5 49.7016C42.972 49.7016 43.4268 49.523 43.7745 49.2012L63.2308 31.2201V59.2Z" fill="white"/>
</svg>
