<svg width="250" height="250" viewBox="0 0 250 250" fill="none" xmlns="http://www.w3.org/2000/svg">
<g id="historic-svgrepo-com (1) 1" clip-path="url(#clip0_473_2875)">
<path id="Path 89" d="M250 125C249.967 153.998 238.433 181.799 217.928 202.303C197.423 222.808 169.623 234.342 140.625 234.375C138.553 234.375 136.566 233.552 135.101 232.087C133.635 230.622 132.812 228.635 132.812 226.562C132.812 224.49 133.635 222.503 135.101 221.038C136.566 219.573 138.553 218.75 140.625 218.75C165.481 218.725 189.313 208.84 206.889 191.264C224.465 173.688 234.35 149.856 234.375 125C234.35 100.144 224.465 76.3123 206.889 58.7362C189.313 41.16 165.481 31.2748 140.625 31.25C115.768 31.2748 91.9371 41.16 74.361 58.7362C56.7848 76.3123 46.8996 100.144 46.8748 125V129.578L64.7811 111.656C65.5068 110.929 66.3689 110.351 67.318 109.958C68.2672 109.564 69.2847 109.361 70.3123 109.361C71.3399 109.361 72.3574 109.564 73.3066 109.958C74.2557 110.351 75.1179 110.929 75.8436 111.656C76.5711 112.382 77.1484 113.244 77.5422 114.193C77.9361 115.142 78.1388 116.16 78.1388 117.188C78.1388 118.215 77.9361 119.233 77.5422 120.182C77.1484 121.131 76.5711 121.993 75.8436 122.719L44.5936 153.969C43.8608 154.693 42.9963 155.271 42.0467 155.672C41.0993 156.058 40.0854 156.255 39.0623 156.25C38.0382 156.25 37.0242 156.048 36.0779 155.656C35.1283 155.256 34.2638 154.678 33.5311 153.953L2.28107 122.703C1.55352 121.977 0.976273 121.115 0.582423 120.166C0.188572 119.217 -0.0141602 118.199 -0.0141602 117.172C-0.0141602 116.144 0.188572 115.127 0.582423 114.178C0.976273 113.228 1.55352 112.366 2.28107 111.641C3.00678 110.913 3.86891 110.336 4.81805 109.942C5.76719 109.548 6.7847 109.345 7.81232 109.345C8.83993 109.345 9.85744 109.548 10.8066 109.942C11.7557 110.336 12.6179 110.913 13.3436 111.641L31.2498 129.578V125C31.2829 96.0021 42.8169 68.2014 63.3216 47.6967C83.8262 27.1921 111.627 15.6581 140.625 15.625C169.623 15.6581 197.423 27.1921 217.928 47.6967C238.433 68.2014 249.967 96.0021 250 125ZM140.625 62.5C138.553 62.5 136.566 63.3231 135.101 64.7882C133.635 66.2534 132.812 68.2405 132.812 70.3125V125C132.812 127.072 133.635 129.059 135.101 130.524C136.566 131.989 138.553 132.812 140.625 132.812H195.312C197.384 132.812 199.371 131.989 200.837 130.524C202.302 129.059 203.125 127.072 203.125 125C203.125 122.928 202.302 120.941 200.837 119.476C199.371 118.011 197.384 117.188 195.312 117.188H148.437V70.3125C148.437 68.2405 147.614 66.2534 146.149 64.7882C144.684 63.3231 142.697 62.5 140.625 62.5Z" fill="white"/>
</g>
<defs>
<clipPath id="clip0_473_2875">
<rect width="250" height="250" fill="white"/>
</clipPath>
</defs>
</svg>
