<svg width="200" height="200" viewBox="0 0 200 200" fill="none" xmlns="http://www.w3.org/2000/svg">
<g id="hotel-svgrepo-com 1">
<g id="Group">
<g id="Group_2">
<path id="Vector" d="M59.2793 12.5801C57.4109 12.5801 55.8961 14.0949 55.8961 15.9633V23.507H50.3699V15.9633C50.3699 14.0949 48.8551 12.5801 46.9867 12.5801C45.1184 12.5801 43.6035 14.0949 43.6035 15.9633V37.8164C43.6035 39.6848 45.1184 41.1996 46.9867 41.1996C48.8551 41.1996 50.3699 39.6848 50.3699 37.8164V30.2734H55.8961V37.8164C55.8961 39.6848 57.4109 41.1996 59.2793 41.1996C61.1477 41.1996 62.6625 39.6848 62.6625 37.8164V15.9633C62.6625 14.0949 61.1477 12.5801 59.2793 12.5801Z" fill="white"/>
</g>
</g>
<g id="Group_3">
<g id="Group_4">
<path id="Vector_2" d="M78.6689 12.5801C73.4147 12.5801 69.1396 16.8551 69.1396 22.1098V31.6699C69.1396 36.9242 73.4147 41.1992 78.6689 41.1992C83.9236 41.1992 88.1986 36.9242 88.1986 31.6699V22.1098C88.1986 16.8551 83.9236 12.5801 78.6689 12.5801ZM81.4326 31.6699C81.4326 33.1934 80.1932 34.4328 78.6693 34.4328C77.1459 34.4328 75.9064 33.1934 75.9064 31.6699V22.1098C75.9064 20.5859 77.1459 19.3465 78.6693 19.3465C80.1932 19.3465 81.4326 20.5859 81.4326 22.1098V31.6699Z" fill="white"/>
</g>
</g>
<g id="Group_5">
<g id="Group_6">
<path id="Vector_3" d="M132.213 34.4332H123.304V30.3668H128.302C130.171 30.3668 131.686 28.852 131.686 26.9836C131.686 25.1152 130.171 23.6004 128.302 23.6004H123.304V19.3465H132.213C134.082 19.3465 135.597 17.8316 135.597 15.9633C135.597 14.0949 134.082 12.5801 132.213 12.5801H119.921C118.052 12.5801 116.538 14.0949 116.538 15.9633V37.8164C116.538 39.6848 118.052 41.1996 119.921 41.1996H132.213C134.082 41.1996 135.597 39.6848 135.597 37.8164C135.597 35.948 134.082 34.4332 132.213 34.4332Z" fill="white"/>
</g>
</g>
<g id="Group_7">
<g id="Group_8">
<path id="Vector_4" d="M157.524 34.4332H148.615V15.9633C148.615 14.0949 147.1 12.5801 145.232 12.5801C143.363 12.5801 141.849 14.0949 141.849 15.9633V37.8164C141.849 39.6848 143.363 41.1996 145.232 41.1996H157.524C159.393 41.1996 160.908 39.6848 160.908 37.8164C160.908 35.948 159.393 34.4332 157.524 34.4332Z" fill="white"/>
</g>
</g>
<g id="Group_9">
<g id="Group_10">
<path id="Vector_5" d="M107.447 12.5801H95.1542C93.2858 12.5801 91.771 14.0949 91.771 15.9633C91.771 17.8316 93.2858 19.3465 95.1542 19.3465H97.9171V37.8164C97.9171 39.6848 99.4319 41.1996 101.3 41.1996C103.169 41.1996 104.683 39.6848 104.683 37.8164V19.3465H107.447C109.315 19.3465 110.83 17.8316 110.83 15.9633C110.83 14.0949 109.315 12.5801 107.447 12.5801Z" fill="white"/>
</g>
</g>
<g id="Group_11">
<g id="Group_12">
<path id="Vector_6" d="M189.224 91.4463C187.356 91.4463 185.841 92.9611 185.841 94.8295V193.233H154.388V173.456C154.388 165.707 148.084 159.403 140.336 159.403C132.587 159.403 126.283 165.707 126.283 173.456V193.233H114.053V173.456C114.053 165.707 107.749 159.403 100 159.403C92.2521 159.403 85.9481 165.707 85.9481 173.456V193.233H73.7177V173.456C73.7177 165.707 67.4138 159.403 59.6649 159.403C51.9165 159.403 45.6126 165.707 45.6126 173.456V193.233H14.1595V174.222C14.1595 172.353 12.6446 170.838 10.7763 170.838C8.90791 170.838 7.39307 172.353 7.39307 174.222V196.617C7.39307 198.485 8.90791 200 10.7763 200H189.225C191.093 200 192.608 198.485 192.608 196.617V94.8295C192.608 92.9611 191.093 91.4463 189.224 91.4463ZM66.9505 193.233H52.3778V173.456C52.3778 169.438 55.6466 166.17 59.6638 166.17C63.6817 166.17 66.9501 169.438 66.9501 173.456V193.233H66.9505ZM107.286 193.233H92.7138V173.456C92.7138 169.438 95.9825 166.17 100 166.17C104.018 166.17 107.286 169.438 107.286 173.456V193.233H107.286ZM147.622 193.233H133.049V173.456C133.049 169.438 136.318 166.17 140.336 166.17C144.353 166.17 147.622 169.438 147.622 173.456L147.622 193.233Z" fill="white"/>
</g>
</g>
<g id="Group_13">
<g id="Group_14">
<path id="Vector_7" d="M33.3549 131.212C28.1318 131.212 23.8818 135.461 23.8818 140.685V153.54C23.8818 155.409 25.3967 156.924 27.265 156.924H39.4439C41.3123 156.924 42.8271 155.409 42.8271 153.54V140.685C42.8275 135.462 38.5779 131.212 33.3549 131.212ZM36.0611 150.157H30.6482V140.685C30.6482 139.192 31.8623 137.978 33.3549 137.978C34.8475 137.978 36.0611 139.192 36.0611 140.685V150.157Z" fill="white"/>
</g>
</g>
<g id="Group_15">
<g id="Group_16">
<path id="Vector_8" d="M86.6709 131.212C81.4471 131.212 77.1982 135.461 77.1982 140.685V153.54C77.1982 155.409 78.7131 156.924 80.5814 156.924H92.7603C94.6287 156.924 96.1436 155.409 96.1436 153.54V140.685C96.1436 135.462 91.8943 131.212 86.6709 131.212ZM89.3771 150.157H83.9646V140.685C83.9646 139.192 85.1787 137.978 86.6709 137.978C88.1631 137.978 89.3775 139.192 89.3775 140.685V150.157H89.3771Z" fill="white"/>
</g>
</g>
<g id="Group_17">
<g id="Group_18">
<path id="Vector_9" d="M60.0127 131.212C54.7893 131.212 50.54 135.461 50.54 140.685V153.54C50.54 155.409 52.0549 156.924 53.9232 156.924H66.1022C67.9705 156.924 69.4854 155.409 69.4854 153.54V140.685C69.4854 135.462 65.2361 131.212 60.0127 131.212ZM62.7189 150.157H57.3064V140.685C57.3064 139.192 58.5205 137.978 60.0127 137.978C61.5049 137.978 62.7193 139.192 62.7193 140.685L62.7189 150.157Z" fill="white"/>
</g>
</g>
<g id="Group_19">
<g id="Group_20">
<path id="Vector_10" d="M113.329 131.212C108.106 131.212 103.856 135.461 103.856 140.685V153.54C103.856 155.409 105.371 156.924 107.24 156.924H119.419C121.287 156.924 122.802 155.409 122.802 153.54V140.685C122.802 135.462 118.553 131.212 113.329 131.212ZM116.035 150.157H110.623V140.685C110.623 139.192 111.837 137.978 113.329 137.978C114.822 137.978 116.036 139.192 116.036 140.685V150.157H116.035Z" fill="white"/>
</g>
</g>
<g id="Group_21">
<g id="Group_22">
<path id="Vector_11" d="M166.646 131.212C161.422 131.212 157.173 135.461 157.173 140.685V153.54C157.173 155.409 158.688 156.924 160.556 156.924H172.735C174.603 156.924 176.118 155.409 176.118 153.54V140.685C176.119 135.462 171.869 131.212 166.646 131.212ZM169.352 150.157H163.94V140.685C163.94 139.192 165.154 137.978 166.646 137.978C168.138 137.978 169.353 139.192 169.353 140.685V150.157H169.352Z" fill="white"/>
</g>
</g>
<g id="Group_23">
<g id="Group_24">
<path id="Vector_12" d="M139.988 131.212C134.765 131.212 130.515 135.461 130.515 140.685V153.54C130.515 155.409 132.029 156.924 133.898 156.924H146.077C147.945 156.924 149.46 155.409 149.46 153.54V140.685C149.46 135.462 145.211 131.212 139.988 131.212ZM142.694 150.157H137.281V140.685C137.281 139.192 138.496 137.978 139.988 137.978C141.481 137.978 142.694 139.192 142.694 140.685V150.157H142.694Z" fill="white"/>
</g>
</g>
<g id="Group_25">
<g id="Group_26">
<path id="Vector_13" d="M33.3549 98.3965C28.1318 98.3965 23.8818 102.646 23.8818 107.869V120.725C23.8818 122.593 25.3967 124.108 27.265 124.108H39.4439C41.3123 124.108 42.8271 122.593 42.8271 120.725V107.869C42.8275 102.646 38.5779 98.3965 33.3549 98.3965ZM36.0611 117.341H30.6482V107.869C30.6482 106.377 31.8623 105.162 33.3549 105.162C34.8475 105.162 36.0611 106.377 36.0611 107.869V117.341Z" fill="white"/>
</g>
</g>
<g id="Group_27">
<g id="Group_28">
<path id="Vector_14" d="M86.6709 98.3965C81.4471 98.3965 77.1982 102.646 77.1982 107.869V120.725C77.1982 122.593 78.7131 124.108 80.5814 124.108H92.7603C94.6287 124.108 96.1436 122.593 96.1436 120.725V107.869C96.1436 102.646 91.8943 98.3965 86.6709 98.3965ZM89.3771 117.341H83.9646V107.869C83.9646 106.377 85.1787 105.162 86.6709 105.162C88.1631 105.162 89.3775 106.377 89.3775 107.869V117.341H89.3771Z" fill="white"/>
</g>
</g>
<g id="Group_29">
<g id="Group_30">
<path id="Vector_15" d="M60.0127 98.3965C54.7893 98.3965 50.54 102.646 50.54 107.869V120.725C50.54 122.593 52.0549 124.108 53.9232 124.108H66.1022C67.9705 124.108 69.4854 122.593 69.4854 120.725V107.869C69.4854 102.646 65.2361 98.3965 60.0127 98.3965ZM62.7189 117.341H57.3064V107.869C57.3064 106.377 58.5205 105.162 60.0127 105.162C61.5049 105.162 62.7193 106.377 62.7193 107.869L62.7189 117.341Z" fill="white"/>
</g>
</g>
<g id="Group_31">
<g id="Group_32">
<path id="Vector_16" d="M113.329 98.3965C108.106 98.3965 103.856 102.646 103.856 107.869V120.725C103.856 122.593 105.371 124.108 107.24 124.108H119.419C121.287 124.108 122.802 122.593 122.802 120.725V107.869C122.802 102.646 118.553 98.3965 113.329 98.3965ZM116.035 117.341H110.623V107.869C110.623 106.377 111.837 105.162 113.329 105.162C114.822 105.162 116.036 106.377 116.036 107.869V117.341H116.035Z" fill="white"/>
</g>
</g>
<g id="Group_33">
<g id="Group_34">
<path id="Vector_17" d="M166.646 98.3965C161.422 98.3965 157.173 102.646 157.173 107.869V120.725C157.173 122.593 158.688 124.108 160.556 124.108H172.735C174.603 124.108 176.118 122.593 176.118 120.725V107.869C176.119 102.646 171.869 98.3965 166.646 98.3965ZM169.352 117.341H163.94V107.869C163.94 106.377 165.154 105.162 166.646 105.162C168.138 105.162 169.353 106.377 169.353 107.869V117.341H169.352Z" fill="white"/>
</g>
</g>
<g id="Group_35">
<g id="Group_36">
<path id="Vector_18" d="M139.988 98.3965C134.765 98.3965 130.515 102.646 130.515 107.869V120.725C130.515 122.593 132.029 124.108 133.898 124.108H146.077C147.945 124.108 149.46 122.593 149.46 120.725V107.869C149.46 102.646 145.211 98.3965 139.988 98.3965ZM142.694 117.341H137.281V107.869C137.281 106.377 138.496 105.162 139.988 105.162C141.481 105.162 142.694 106.377 142.694 107.869V117.341H142.694Z" fill="white"/>
</g>
</g>
<g id="Group_37">
<g id="Group_38">
<path id="Vector_19" d="M33.3549 65.5811C28.1318 65.5811 23.8818 69.8303 23.8818 75.0541V87.91C23.8818 89.7783 25.3967 91.2932 27.265 91.2932H39.4439C41.3123 91.2932 42.8271 89.7783 42.8271 87.91V75.0541C42.8271 69.8311 38.5779 65.5811 33.3549 65.5811ZM36.0615 84.5268H30.6486V75.0541C30.6486 73.5619 31.8627 72.3475 33.3553 72.3475C34.8479 72.3475 36.0615 73.5615 36.0615 75.0541V84.5268Z" fill="white"/>
</g>
</g>
<g id="Group_39">
<g id="Group_40">
<path id="Vector_20" d="M86.6704 65.5811C81.447 65.5811 77.1978 69.8303 77.1978 75.0541V87.91C77.1978 89.7783 78.7126 91.2932 80.581 91.2932H92.7599C94.6282 91.2932 96.1431 89.7783 96.1431 87.91V75.0541C96.1435 69.8311 91.8942 65.5811 86.6704 65.5811ZM89.3774 84.5268H83.9649V75.0541C83.9649 73.5619 85.179 72.3475 86.6712 72.3475C88.1634 72.3475 89.3778 73.5615 89.3778 75.0541V84.5268H89.3774Z" fill="white"/>
</g>
</g>
<g id="Group_41">
<g id="Group_42">
<path id="Vector_21" d="M60.0127 65.5811C54.7889 65.5811 50.54 69.8303 50.54 75.0541V87.91C50.54 89.7783 52.0549 91.2932 53.9232 91.2932H66.1021C67.9705 91.2932 69.4854 89.7783 69.4854 87.91V75.0541C69.4854 69.8311 65.2361 65.5811 60.0127 65.5811ZM62.7193 84.5268H57.3068V75.0541C57.3068 73.5619 58.5209 72.3475 60.0131 72.3475C61.5053 72.3475 62.7197 73.5615 62.7197 75.0541L62.7193 84.5268Z" fill="white"/>
</g>
</g>
<g id="Group_43">
<g id="Group_44">
<path id="Vector_22" d="M113.329 65.5811C108.106 65.5811 103.856 69.8303 103.856 75.0541V87.91C103.856 89.7783 105.371 91.2932 107.239 91.2932H119.418C121.286 91.2932 122.801 89.7783 122.801 87.91V75.0541C122.802 69.8311 118.552 65.5811 113.329 65.5811ZM116.036 84.5268H110.623V75.0541C110.623 73.5619 111.837 72.3475 113.33 72.3475C114.822 72.3475 116.036 73.5615 116.036 75.0541V84.5268H116.036Z" fill="white"/>
</g>
</g>
<g id="Group_45">
<g id="Group_46">
<path id="Vector_23" d="M166.646 65.5811C161.422 65.5811 157.173 69.8303 157.173 75.0541V87.91C157.173 89.7783 158.688 91.2932 160.556 91.2932H172.735C174.603 91.2932 176.118 89.7783 176.118 87.91V75.0541C176.119 69.8311 171.869 65.5811 166.646 65.5811ZM169.352 84.5268H163.94V75.0541C163.94 73.5619 165.154 72.3475 166.646 72.3475C168.138 72.3475 169.353 73.5615 169.353 75.0541V84.5268H169.352Z" fill="white"/>
</g>
</g>
<g id="Group_47">
<g id="Group_48">
<path id="Vector_24" d="M139.987 65.5811C134.764 65.5811 130.514 69.8303 130.514 75.0541V87.91C130.514 89.7783 132.029 91.2932 133.897 91.2932H146.076C147.945 91.2932 149.459 89.7783 149.459 87.91V75.0541C149.46 69.8311 145.211 65.5811 139.987 65.5811ZM142.694 84.5268H137.281V75.0541C137.281 73.5619 138.495 72.3475 139.988 72.3475C141.481 72.3475 142.694 73.5615 142.694 75.0541V84.5268H142.694Z" fill="white"/>
</g>
</g>
<g id="Group_49">
<g id="Group_50">
<path id="Vector_25" d="M195.014 45.5723H179.839V3.3832C179.839 1.51484 178.325 0 176.456 0H149.093C147.225 0 145.71 1.51484 145.71 3.3832C145.71 5.25156 147.225 6.76641 149.093 6.76641H173.073V45.5727H26.9269V6.76641H137.816C139.684 6.76641 141.199 5.25156 141.199 3.3832C141.199 1.51484 139.684 0 137.816 0H23.5437C21.6753 0 20.1604 1.51484 20.1604 3.3832V45.5723H4.98623C3.11787 45.5723 1.60303 47.0871 1.60303 48.9555V58.5895C1.60303 60.4578 3.11787 61.9727 4.98623 61.9727H7.39248V162.944C7.39248 164.812 8.90732 166.327 10.7757 166.327C12.644 166.327 14.1589 164.812 14.1589 162.944V61.973H185.841V83.5523C185.841 85.4207 187.356 86.9355 189.225 86.9355C191.093 86.9355 192.608 85.4207 192.608 83.5523V61.973H195.014C196.882 61.973 198.397 60.4582 198.397 58.5898V48.9559C198.397 47.0871 196.882 45.5723 195.014 45.5723ZM191.63 55.207H8.36943V52.3395H191.63V55.207Z" fill="white"/>
</g>
</g>
</g>
</svg>
