
<svg width="132" height="132" viewBox="0 0 132 132" fill="none" xmlns="http://www.w3.org/2000/svg">
    <path d="M93.3353 55H70.9778C67.5657 54.9928 64.2731 56.2561 61.7414 58.5438C59.2097 60.8314 57.6203 63.9796 57.2828 67.375L52.8828 111.375C52.5533 114.811 53.5248 118.246 55.6053 121H23.5678C21.6098 120.996 19.6751 120.574 17.8926 119.764C16.1101 118.953 14.5207 117.773 13.2302 116.3C11.9397 114.827 10.9777 113.097 10.4083 111.223C9.83889 109.35 9.67509 107.377 9.92781 105.435L18.0128 44.935C18.4622 41.639 20.0871 38.6163 22.5884 36.4233C25.0896 34.2303 28.2989 33.0146 31.6253 33H33.0003V44C33.0003 44.7293 33.29 45.4288 33.8058 45.9445C34.3215 46.4603 35.021 46.75 35.7503 46.75C36.4797 46.75 37.1791 46.4603 37.6949 45.9445C38.2106 45.4288 38.5003 44.7293 38.5003 44V33H71.5003V44C71.5003 44.7293 71.79 45.4288 72.3058 45.9445C72.8215 46.4603 73.521 46.75 74.2503 46.75C74.9797 46.75 75.6791 46.4603 76.1949 45.9445C76.7106 45.4288 77.0003 44.7293 77.0003 44V33H78.3753C81.7018 33.0146 84.911 34.2303 87.4123 36.4233C89.9135 38.6163 91.5384 41.639 91.9878 44.935L93.3353 55ZM77.0003 33H71.5003C71.5003 28.6239 69.7619 24.4271 66.6676 21.3327C63.5732 18.2384 59.3764 16.5 55.0003 16.5C50.6242 16.5 46.4274 18.2384 43.333 21.3327C40.2387 24.4271 38.5003 28.6239 38.5003 33H33.0003C33.0003 27.1652 35.3182 21.5695 39.444 17.4437C43.5698 13.3179 49.1655 11 55.0003 11C60.8351 11 66.4309 13.3179 70.5567 17.4437C74.6825 21.5695 77.0003 27.1652 77.0003 33Z" fill="#0D9488"/>
    <path opacity="0.5" d="M118.732 67.925C118.534 65.8875 117.583 63.9971 116.065 62.6238C114.546 61.2505 112.57 60.4932 110.523 60.5H70.9782C68.9312 60.4938 66.9555 61.2513 65.4374 62.6245C63.9193 63.9977 62.968 65.8877 62.7695 67.925L58.3695 111.925C58.2542 113.072 58.3806 114.231 58.7407 115.326C59.1007 116.422 59.6863 117.429 60.4598 118.284C61.2333 119.139 62.1774 119.823 63.2312 120.291C64.285 120.758 65.4252 121 66.5782 121H114.923C116.076 121 117.216 120.758 118.27 120.291C119.324 119.823 120.268 119.139 121.042 118.284C121.815 117.429 122.401 116.422 122.761 115.326C123.121 114.231 123.247 113.072 123.132 111.925L118.732 67.925ZM90.7507 90.7501C86.376 90.7457 82.1817 89.0059 79.0883 85.9125C75.9949 82.8191 74.2551 78.6248 74.2507 74.25C74.2507 73.5207 74.5405 72.8212 75.0562 72.3055C75.5719 71.7898 76.2714 71.5 77.0007 71.5C77.7301 71.5 78.4295 71.7898 78.9453 72.3055C79.461 72.8212 79.7507 73.5207 79.7507 74.25C79.7507 77.1674 80.9097 79.9653 82.9726 82.0282C85.0355 84.0911 87.8333 85.2501 90.7507 85.2501C93.6681 85.2501 96.466 84.0911 98.5289 82.0282C100.592 79.9653 101.751 77.1674 101.751 74.25C101.751 73.5207 102.04 72.8212 102.556 72.3055C103.072 71.7898 103.771 71.5 104.501 71.5C105.23 71.5 105.93 71.7898 106.445 72.3055C106.961 72.8212 107.251 73.5207 107.251 74.25C107.246 78.6248 105.507 82.8191 102.413 85.9125C99.3198 89.0059 95.1255 90.7457 90.7507 90.7501Z" fill="#0D9488"/>
</svg>
