<svg width="3361" height="933" viewBox="0 0 3361 933" fill="none" xmlns="http://www.w3.org/2000/svg">
<g clip-path="url(#clip0_132_39)">
<path d="M330.967 7.65845H479.219L329.736 452.256H149.482L0 7.65845H148.251L239.883 313.447L330.967 7.65845Z" fill="#5A33E2"/>
<path d="M877.2 402.613L967.6 524.464H803.074L760.404 454.17C749.736 456.085 738.385 456.632 727.17 456.632C600.938 456.632 497.955 361.859 497.955 228.111C497.955 94.3624 600.938 0.136719 727.17 0.136719C853.403 0.136719 955.155 94.3624 955.155 228.111C955.155 301.002 925.067 361.859 877.336 402.613H877.2ZM727.17 326.576C783.106 326.576 813.878 287.053 813.878 227.974C813.878 168.895 783.106 128.688 727.17 128.688C671.234 128.688 639.915 167.664 639.915 227.974C639.915 288.284 670.003 326.576 727.17 326.576Z" fill="#5A33E2"/>
<path d="M1002.75 7.65845H1141.56V258.198C1141.56 296.49 1156.61 324.798 1198.73 324.798C1240.85 324.798 1257.81 296.49 1257.81 258.198V7.65845H1396.63V258.198C1396.63 389.484 1306.77 456.632 1195.72 456.632C1084.67 456.632 1002.89 389.484 1002.89 258.198V7.65845H1002.75Z" fill="#5A33E2"/>
<path d="M1741.82 385.108H1593.57L1571.55 452.256H1425.21L1587.96 7.65845H1748.79L1910.86 452.256H1763.97L1741.95 385.108H1741.82ZM1667.69 156.587L1627.48 280.352H1707.9L1667.69 156.587Z" fill="#5A33E2"/>
<path d="M2149.37 7.65845C2261.11 7.65845 2318.27 71.6608 2318.27 153.305C2318.27 211.7 2285.59 261.343 2222.13 281.993L2318.82 452.119H2165.65L2082.08 292.66H2081.4V452.119H1942.04V7.65845H2149.23H2149.37ZM2136.79 124.449H2081.54V199.802H2136.79C2163.18 199.802 2177 188.451 2177 162.057C2177 139.492 2163.18 124.449 2136.79 124.449Z" fill="#5A33E2"/>
<path d="M2362.86 7.65845H2502.22V452.256H2362.86V7.65845Z" fill="#5A33E2"/>
<path d="M2562.53 7.65845H2701.35V258.198C2701.35 296.49 2716.39 324.798 2758.52 324.798C2800.64 324.798 2817.6 296.49 2817.6 258.198V7.65845H2956.41V258.198C2956.41 389.484 2866.56 456.632 2755.51 456.632C2644.45 456.632 2562.67 389.484 2562.67 258.198V7.65845H2562.53Z" fill="#5A33E2"/>
<path d="M3190.41 456.632C3088.66 456.632 3008.93 409.588 3002.64 309.618H3150.89C3153.35 342.303 3170.99 347.91 3184.81 347.91C3198.62 347.91 3211.89 341.619 3211.89 325.892C3211.2 265.582 3001.54 287.6 3004.01 135.663C3004.01 46.4974 3079.36 0 3174.14 0C3281.5 0 3350.56 51.4207 3354.39 143.732H3204.36C3203.13 116.654 3188.64 108.585 3173.59 108.585C3162.24 108.585 3153.49 116.107 3153.49 131.15C3153.49 187.084 3360.14 177.648 3360.14 314.541C3360.14 396.185 3297.91 456.495 3190.55 456.495L3190.41 456.632Z" fill="#5A33E2"/>
<path d="M1036.19 731.062H1070.65L995.705 930.591H957.822L882.602 731.062H917.613L976.832 897.085L1036.32 731.062H1036.19Z" fill="#373737"/>
<path d="M1367.7 788.5H1328.31C1317.65 768.397 1298.77 758.413 1274.84 758.413C1235.18 758.413 1206.46 786.585 1206.46 830.484C1206.46 874.383 1235.18 902.829 1274.84 902.829C1311.08 902.829 1333.65 880.948 1338.57 847.442H1263.62V821.322H1373.58V846.895C1367.56 893.119 1328.45 932.505 1274.84 932.505C1221.23 932.505 1172.95 890.521 1172.95 830.621C1172.95 770.722 1218.63 728.737 1274.84 728.737C1316.55 728.737 1352.38 749.661 1367.56 788.773L1367.7 788.5Z" fill="#373737"/>
<path d="M1602.25 757.456H1524.71V815.988H1593.63V842.656H1524.71V903.786H1602.25V930.454H1492.02V730.652H1602.25V757.32V757.456Z" fill="#373737"/>
<path d="M1892.46 730.789V930.591H1859.78L1761.31 781.526V930.591H1728.62V730.789H1761.31L1859.78 879.58V730.789H1892.46Z" fill="#373737"/>
<path d="M2112.65 728.464C2154.36 728.464 2190.2 749.387 2205.38 788.5H2165.99C2155.32 767.303 2136.45 757.183 2112.51 757.183C2072.85 757.183 2044.13 785.355 2044.13 830.348C2044.13 875.341 2072.85 903.923 2112.51 903.923C2136.31 903.923 2155.32 893.803 2165.99 872.606H2205.38C2190.2 911.718 2154.23 932.369 2112.65 932.369C2056.44 932.369 2010.76 890.384 2010.76 830.484C2010.76 770.585 2056.44 728.6 2112.65 728.6V728.464Z" fill="#373737"/>
<path d="M2312.33 731.062H2348.84L2395.07 828.98L2441.29 731.062H2477.54L2411.48 858.246V930.591H2378.79V858.246L2312.46 731.062H2312.33Z" fill="#373737"/>
</g>
<defs>
<clipPath id="clip0_132_39">
<rect width="3360.14" height="932.505" fill="white"/>
</clipPath>
</defs>
</svg>
