
<svg width="425" height="101" viewBox="0 0 425 101" fill="none" xmlns="http://www.w3.org/2000/svg">
    <path d="M29.8609 79.31C26.0475 79.31 22.6009 78.54 19.5209 77C16.4409 75.3867 13.9842 73.2233 12.1509 70.51C10.3175 67.7967 9.32753 64.68 9.18086 61.16V42.35C9.32753 38.83 10.3175 35.7133 12.1509 33C14.0575 30.2133 16.5142 28.0133 19.5209 26.4C22.6009 24.7867 26.0475 23.98 29.8609 23.98C34.7742 23.98 39.1742 25.19 43.0609 27.61C46.9475 30.03 49.9909 33.33 52.1909 37.51C54.4642 41.69 55.6009 46.42 55.6009 51.7C55.6009 56.9067 54.4642 61.6 52.1909 65.78C49.9909 69.96 46.9475 73.26 43.0609 75.68C39.1742 78.1 34.7742 79.31 29.8609 79.31ZM0.380859 100.43V25.08H14.7909V39.05L12.3709 51.92L14.6809 64.79V100.43H0.380859ZM27.3309 66C29.9709 66 32.3175 65.4133 34.3709 64.24C36.4242 62.9933 38.0009 61.3067 39.1009 59.18C40.2742 56.98 40.8609 54.45 40.8609 51.59C40.8609 48.8033 40.2742 46.3467 39.1009 44.22C38.0009 42.02 36.4242 40.3333 34.3709 39.16C32.3175 37.9133 29.9709 37.29 27.3309 37.29C24.7642 37.29 22.4542 37.9133 20.4009 39.16C18.3475 40.3333 16.7342 42.02 15.5609 44.22C14.4609 46.3467 13.9109 48.8033 13.9109 51.59C13.9109 54.45 14.4609 56.98 15.5609 59.18C16.7342 61.3067 18.3109 62.9933 20.2909 64.24C22.3442 65.4133 24.6909 66 27.3309 66Z" fill="#000"/>
    <path d="M90.0188 79.31C84.6655 79.31 79.8255 78.1 75.4988 75.68C71.2455 73.1867 67.8355 69.85 65.2688 65.67C62.7755 61.4167 61.5288 56.6867 61.5288 51.48C61.5288 46.2733 62.7755 41.6167 65.2688 37.51C67.7622 33.33 71.1722 30.03 75.4988 27.61C79.8255 25.1167 84.6288 23.87 89.9088 23.87C95.3355 23.87 100.175 25.1167 104.429 27.61C108.755 30.03 112.165 33.33 114.659 37.51C117.152 41.6167 118.399 46.2733 118.399 51.48C118.399 56.6867 117.152 61.4167 114.659 65.67C112.165 69.85 108.755 73.1867 104.429 75.68C100.175 78.1 95.3722 79.31 90.0188 79.31ZM89.9088 65.89C92.6222 65.89 95.0055 65.3033 97.0588 64.13C99.1855 62.8833 100.799 61.1967 101.899 59.07C103.072 56.87 103.659 54.3767 103.659 51.59C103.659 48.8033 103.072 46.3467 101.899 44.22C100.725 42.0933 99.1122 40.4433 97.0588 39.27C95.0055 38.0233 92.6222 37.4 89.9088 37.4C87.2688 37.4 84.9222 38.0233 82.8688 39.27C80.8155 40.4433 79.2022 42.0933 78.0288 44.22C76.8555 46.3467 76.2688 48.8033 76.2688 51.59C76.2688 54.3767 76.8555 56.87 78.0288 59.07C79.2022 61.1967 80.8155 62.8833 82.8688 64.13C84.9222 65.3033 87.2688 65.89 89.9088 65.89Z" fill="#000"/>
    <path d="M145.936 79.42C142.929 79.42 139.959 79.0167 137.026 78.21C134.166 77.4033 131.526 76.3033 129.106 74.91C126.686 73.4433 124.596 71.6833 122.836 69.63L131.416 60.94C133.249 62.9933 135.376 64.5333 137.796 65.56C140.216 66.5867 142.892 67.1 145.826 67.1C148.172 67.1 149.932 66.77 151.106 66.11C152.352 65.45 152.976 64.46 152.976 63.14C152.976 61.6733 152.316 60.5367 150.996 59.73C149.749 58.9233 148.099 58.2633 146.046 57.75C143.992 57.1633 141.829 56.54 139.556 55.88C137.356 55.1467 135.229 54.23 133.176 53.13C131.122 51.9567 129.436 50.38 128.116 48.4C126.869 46.3467 126.246 43.7067 126.246 40.48C126.246 37.1067 127.052 34.1733 128.666 31.68C130.352 29.1867 132.736 27.2433 135.816 25.85C138.896 24.4567 142.526 23.76 146.706 23.76C151.106 23.76 155.066 24.53 158.586 26.07C162.179 27.61 165.149 29.92 167.496 33L158.806 41.69C157.192 39.71 155.359 38.28 153.306 37.4C151.326 36.52 149.162 36.08 146.816 36.08C144.689 36.08 143.039 36.41 141.866 37.07C140.766 37.73 140.216 38.6467 140.216 39.82C140.216 41.14 140.839 42.1667 142.086 42.9C143.406 43.6333 145.092 44.2933 147.146 44.88C149.199 45.3933 151.326 46.0167 153.526 46.75C155.799 47.41 157.926 48.3633 159.906 49.61C161.959 50.8567 163.609 52.5067 164.856 54.56C166.176 56.6133 166.836 59.2533 166.836 62.48C166.836 67.6867 164.966 71.83 161.226 74.91C157.486 77.9167 152.389 79.42 145.936 79.42Z" fill="#000"/>
    <path d="M216.297 79.42C213.29 79.42 210.32 79.0167 207.387 78.21C204.527 77.4033 201.887 76.3033 199.467 74.91C197.047 73.4433 194.957 71.6833 193.197 69.63L201.777 60.94C203.61 62.9933 205.737 64.5333 208.157 65.56C210.577 66.5867 213.254 67.1 216.187 67.1C218.534 67.1 220.294 66.77 221.467 66.11C222.714 65.45 223.337 64.46 223.337 63.14C223.337 61.6733 222.677 60.5367 221.357 59.73C220.11 58.9233 218.46 58.2633 216.407 57.75C214.354 57.1633 212.19 56.54 209.917 55.88C207.717 55.1467 205.59 54.23 203.537 53.13C201.484 51.9567 199.797 50.38 198.477 48.4C197.23 46.3467 196.607 43.7067 196.607 40.48C196.607 37.1067 197.414 34.1733 199.027 31.68C200.714 29.1867 203.097 27.2433 206.177 25.85C209.257 24.4567 212.887 23.76 217.067 23.76C221.467 23.76 225.427 24.53 228.947 26.07C232.54 27.61 235.51 29.92 237.857 33L229.167 41.69C227.554 39.71 225.72 38.28 223.667 37.4C221.687 36.52 219.524 36.08 217.177 36.08C215.05 36.08 213.4 36.41 212.227 37.07C211.127 37.73 210.577 38.6467 210.577 39.82C210.577 41.14 211.2 42.1667 212.447 42.9C213.767 43.6333 215.454 44.2933 217.507 44.88C219.56 45.3933 221.687 46.0167 223.887 46.75C226.16 47.41 228.287 48.3633 230.267 49.61C232.32 50.8567 233.97 52.5067 235.217 54.56C236.537 56.6133 237.197 59.2533 237.197 62.48C237.197 67.6867 235.327 71.83 231.587 74.91C227.847 77.9167 222.75 79.42 216.297 79.42Z" fill="#000"/>
    <path d="M269.574 79.31C264.881 79.31 260.701 78.32 257.034 76.34C253.441 74.36 250.617 71.61 248.564 68.09C246.511 64.57 245.484 60.5 245.484 55.88V25.08H260.004V55.55C260.004 57.75 260.371 59.6567 261.104 61.27C261.837 62.81 262.937 63.9833 264.404 64.79C265.871 65.5967 267.594 66 269.574 66C272.581 66 274.927 65.0833 276.614 63.25C278.301 61.4167 279.144 58.85 279.144 55.55V25.08H293.554V55.88C293.554 60.5733 292.527 64.68 290.474 68.2C288.494 71.72 285.671 74.47 282.004 76.45C278.411 78.3567 274.267 79.31 269.574 79.31Z" fill="#000"/>
    <path d="M305.029 78.21V25.08H319.549V78.21H305.029ZM312.289 16.5C309.943 16.5 307.999 15.73 306.459 14.19C304.919 12.5767 304.149 10.5967 304.149 8.25C304.149 5.97666 304.919 4.03333 306.459 2.42C307.999 0.806667 309.943 0 312.289 0C314.709 0 316.653 0.806667 318.119 2.42C319.659 4.03333 320.429 5.97666 320.429 8.25C320.429 10.5967 319.659 12.5767 318.119 14.19C316.653 15.73 314.709 16.5 312.289 16.5Z" fill="#000"/>
    <path d="M340.124 78.21V2.97H354.534V78.21H340.124ZM327.694 37.73V25.08H366.964V37.73H327.694Z" fill="#000"/>
    <path d="M399.189 79.31C393.616 79.31 388.666 78.1367 384.339 75.79C380.013 73.37 376.566 70.07 373.999 65.89C371.506 61.71 370.259 56.9433 370.259 51.59C370.259 46.31 371.469 41.6167 373.889 37.51C376.383 33.33 379.756 30.03 384.009 27.61C388.263 25.1167 392.993 23.87 398.199 23.87C403.333 23.87 407.843 25.0433 411.729 27.39C415.689 29.6633 418.769 32.8167 420.969 36.85C423.243 40.81 424.379 45.32 424.379 50.38C424.379 51.3333 424.306 52.3233 424.159 53.35C424.086 54.3033 423.903 55.4033 423.609 56.65L378.949 56.76V45.98L416.899 45.87L411.069 50.38C410.923 47.2267 410.336 44.5867 409.309 42.46C408.356 40.3333 406.926 38.72 405.019 37.62C403.186 36.4467 400.913 35.86 398.199 35.86C395.339 35.86 392.846 36.52 390.719 37.84C388.593 39.0867 386.943 40.8833 385.769 43.23C384.669 45.5033 384.119 48.2167 384.119 51.37C384.119 54.5967 384.706 57.42 385.879 59.84C387.126 62.1867 388.886 64.02 391.159 65.34C393.433 66.5867 396.073 67.21 399.079 67.21C401.793 67.21 404.249 66.77 406.449 65.89C408.649 64.9367 410.556 63.5433 412.169 61.71L420.639 70.18C418.073 73.1867 414.919 75.46 411.179 77C407.513 78.54 403.516 79.31 399.189 79.31Z" fill="#000"/>
</svg>
