<svg width="250" height="250" viewBox="0 0 250 250" fill="none" xmlns="http://www.w3.org/2000/svg">
<path d="M226.562 195.312C203.125 195.312 203.125 109.375 203.125 109.375C203.125 73.4219 178.805 43.2188 145.75 34.125C147.406 30.9062 148.438 27.3125 148.438 23.4375C148.438 10.4922 137.945 0 125 0C112.055 0 101.562 10.4922 101.562 23.4375C101.562 27.3125 102.594 30.9062 104.25 34.125C71.1953 43.2188 46.875 73.4219 46.875 109.375C46.875 109.375 46.875 195.312 23.4375 195.312C19.125 195.312 15.625 198.812 15.625 203.125C15.625 207.438 19.125 210.938 23.4375 210.938H94.8516C94.2031 213.445 93.75 216.039 93.75 218.75C93.75 236.008 107.742 250 125 250C142.258 250 156.25 236.008 156.25 218.75C156.25 216.039 155.797 213.445 155.148 210.938H226.562C230.875 210.938 234.375 207.438 234.375 203.125C234.375 198.812 230.875 195.312 226.562 195.312ZM117.188 23.4375C117.188 19.1328 120.695 15.625 125 15.625C129.305 15.625 132.812 19.1328 132.812 23.4375C132.812 27.7422 129.305 31.25 125 31.25C120.695 31.25 117.188 27.7422 117.188 23.4375ZM62.5 109.375C62.5 74.9141 90.5391 46.875 125 46.875C159.461 46.875 187.5 74.9141 187.5 109.375C187.5 110.297 187.531 132.18 190.57 154.453C191.117 158.461 192.008 164.844 193.633 171.875H56.3594C57.9844 164.844 58.875 158.461 59.4219 154.453C62.4688 132.18 62.5 110.297 62.5 109.375ZM125 234.375C116.383 234.375 109.375 227.367 109.375 218.75C109.375 217.688 109.57 216.453 109.984 214.852L113.016 203.125H136.977L140.016 214.852C140.43 216.453 140.625 217.688 140.625 218.75C140.625 227.367 133.617 234.375 125 234.375ZM47.6406 195.312C50.4844 190.523 52.6094 185.086 54.2656 179.688H195.734C197.391 185.086 199.516 190.523 202.359 195.312H47.6406Z" fill="white"/>
</svg>
