<svg width="1080" height="1080" viewBox="0 0 1080 1080" fill="none" xmlns="http://www.w3.org/2000/svg">
<rect width="1080" height="1080" fill="white"/>
<path d="M710.223 471.5H570.997C549.748 471.455 529.244 479.322 513.479 493.568C497.714 507.814 487.816 527.418 485.714 548.563L458.314 822.563C456.262 843.96 462.312 865.348 475.268 882.5H275.762C263.568 882.473 251.521 879.849 240.421 874.802C229.321 869.756 219.423 862.403 211.387 853.232C203.35 844.062 197.36 833.285 193.814 821.618C190.268 809.952 189.248 797.664 190.822 785.573L241.169 408.823C243.968 388.297 254.086 369.474 269.662 355.818C285.238 342.161 305.223 334.591 325.938 334.5H334.5V403C334.5 407.542 336.305 411.898 339.516 415.109C342.728 418.321 347.083 420.125 351.625 420.125C356.167 420.125 360.523 418.321 363.735 415.109C366.946 411.898 368.75 407.542 368.75 403V334.5H574.25V403C574.25 407.542 576.055 411.898 579.266 415.109C582.478 418.321 586.834 420.125 591.375 420.125C595.917 420.125 600.273 418.321 603.485 415.109C606.696 411.898 608.5 407.542 608.5 403V334.5H617.063C637.778 334.591 657.762 342.161 673.338 355.818C688.914 369.474 699.033 388.297 701.832 408.823L710.223 471.5ZM608.5 334.5H574.25C574.25 307.249 563.425 281.114 544.156 261.845C524.886 242.575 498.751 231.75 471.5 231.75C444.249 231.75 418.114 242.575 398.845 261.845C379.576 281.114 368.75 307.249 368.75 334.5H334.5C334.5 298.165 348.934 263.319 374.627 237.626C400.319 211.934 435.166 197.5 471.5 197.5C507.835 197.5 542.682 211.934 568.374 237.626C594.066 263.319 608.5 298.165 608.5 334.5Z" fill="#BABABA"/>
<path opacity="0.5" d="M868.372 551.988C867.139 539.299 861.216 527.527 851.762 518.975C842.307 510.424 830.002 505.708 817.254 505.75H570.996C558.249 505.712 545.946 510.429 536.492 518.98C527.039 527.531 521.115 539.301 519.878 551.988L492.478 825.988C491.76 833.132 492.548 840.347 494.79 847.168C497.032 853.989 500.679 860.264 505.495 865.589C510.312 870.914 516.191 875.17 522.753 878.083C529.316 880.995 536.416 882.5 543.596 882.5H844.654C851.834 882.5 858.934 880.995 865.497 878.083C872.059 875.17 877.938 870.914 882.755 865.589C887.571 860.264 891.218 853.989 893.46 847.168C895.703 840.347 896.49 833.132 895.772 825.988L868.372 551.988ZM694.125 694.125C666.882 694.098 640.763 683.264 621.5 664C602.236 644.737 591.402 618.618 591.375 591.375C591.375 586.833 593.179 582.478 596.391 579.266C599.602 576.055 603.958 574.25 608.5 574.25C613.042 574.25 617.398 576.055 620.609 579.266C623.821 582.478 625.625 586.833 625.625 591.375C625.625 609.543 632.842 626.966 645.688 639.812C658.535 652.658 675.958 659.875 694.125 659.875C712.292 659.875 729.716 652.658 742.562 639.812C755.408 626.966 762.625 609.543 762.625 591.375C762.625 586.833 764.429 582.478 767.641 579.266C770.852 576.055 775.208 574.25 779.75 574.25C784.292 574.25 788.648 576.055 791.859 579.266C795.071 582.478 796.875 586.833 796.875 591.375C796.848 618.618 786.014 644.737 766.75 664C747.487 683.264 721.368 694.098 694.125 694.125Z" fill="#BABABA"/>
</svg>
