<svg width="28" height="22" viewBox="0 0 28 22" fill="none" xmlns="http://www.w3.org/2000/svg">
<g id="right-arrow 1" clip-path="url(#clip0_663_362)">
<g id="Group">
<g id="Group_2">
<path id="Vector" d="M21.7783 9.79363L9.31791 0.356372C9.02972 0.137923 8.64501 0.0175781 8.2348 0.0175781C7.82459 0.0175781 7.43988 0.137923 7.15169 0.356372L6.23407 1.0512C5.63697 1.50396 5.63697 2.23982 6.23407 2.69189L16.6973 10.6167L6.22246 18.5504C5.93427 18.7688 5.77515 19.06 5.77515 19.3705C5.77515 19.6814 5.93427 19.9726 6.22246 20.1912L7.14008 20.8859C7.4285 21.1043 7.81298 21.2247 8.22319 21.2247C8.6334 21.2247 9.01811 21.1043 9.30631 20.8859L21.7783 11.44C22.0671 11.2209 22.2258 10.9283 22.2249 10.6172C22.2258 10.305 22.0671 10.0126 21.7783 9.79363Z" fill="#826AF9"/>
</g>
</g>
</g>
<defs>
<clipPath id="clip0_663_362">
<rect width="28" height="21.2071" fill="white" transform="translate(0 0.0175781)"/>
</clipPath>
</defs>
</svg>
