<svg width="28" height="28" viewBox="0 0 28 28" fill="none" xmlns="http://www.w3.org/2000/svg">
    <g clip-path="url(#clip0_741_419)">
        <path d="M11.2691 22.5289C13.7718 22.5289 16.2029 21.6939 18.1773 20.1561L25.6262 27.605C26.1827 28.1424 27.0694 28.127 27.6068 27.5705C28.131 27.0277 28.131 26.1672 27.6068 25.6244L20.1579 18.1755C23.9739 13.2632 23.0853 6.18751 18.173 2.37145C13.2607 -1.44461 6.18507 -0.555978 2.36901 4.35632C-1.44705 9.26862 -0.55842 16.3443 4.35388 20.1604C6.33153 21.6967 8.7648 22.5301 11.2691 22.5289ZM5.284 5.28214C8.58953 1.97655 13.9488 1.97649 17.2544 5.28202C20.56 8.58754 20.5601 13.9469 17.2545 17.2524C13.949 20.558 8.58971 20.5581 5.28412 17.2526C5.28406 17.2525 5.28406 17.2525 5.284 17.2524C1.97848 13.971 1.959 8.63122 5.24044 5.3257C5.25494 5.31114 5.26944 5.29664 5.284 5.28214Z" fill="black"/>
    </g>
    <defs>
        <clipPath id="clip0_741_419">
            <rect width="28" height="28" fill="white"/>
        </clipPath>
    </defs>
</svg>
