<svg width="85" height="85" viewBox="0 0 85 85" fill="none" xmlns="http://www.w3.org/2000/svg">
<circle cx="42.5" cy="42.5" r="42.5" fill="#8A84E2"/>
<path d="M46.264 25.2731C46.3278 25.0345 46.438 24.8108 46.5883 24.6148C46.7386 24.4189 46.926 24.2544 47.1399 24.1309C47.3538 24.0074 47.5899 23.9272 47.8347 23.8949C48.0796 23.8627 48.3284 23.879 48.567 23.943C52.0523 24.8523 55.2321 26.6743 57.7791 29.2212C60.326 31.7682 62.148 34.948 63.0573 38.4332C63.1213 38.6718 63.1376 38.9206 63.1054 39.1655C63.0732 39.4103 62.993 39.6465 62.8695 39.8603C62.7459 40.0742 62.5815 40.2616 62.3855 40.4119C62.1895 40.5622 61.9658 40.6724 61.7272 40.7363C61.5684 40.778 61.405 40.7993 61.2408 40.7997C60.8265 40.7997 60.4238 40.6628 60.0953 40.4104C59.7668 40.158 59.5309 39.8041 59.4242 39.4038C58.6825 36.5587 57.1956 33.9628 55.1165 31.8838C53.0375 29.8047 50.4416 28.3178 47.5964 27.5761C47.3576 27.5126 47.1337 27.4025 46.9374 27.2524C46.7412 27.1022 46.5765 26.9148 46.4527 26.7009C46.329 26.487 46.2486 26.2508 46.2162 26.0058C46.1838 25.7608 46.2 25.5118 46.264 25.2731ZM45.7164 35.0962C48.9571 35.961 51.0392 38.0431 51.9041 41.2838C52.0107 41.6841 52.2467 42.038 52.5752 42.2904C52.9037 42.5429 53.3063 42.6797 53.7206 42.6797C53.8848 42.6793 54.0483 42.658 54.2071 42.6163C54.4457 42.5525 54.6694 42.4423 54.8654 42.292C55.0614 42.1417 55.2258 41.9542 55.3493 41.7404C55.4729 41.5265 55.553 41.2904 55.5853 41.0455C55.6175 40.8006 55.6012 40.5518 55.5372 40.3133C54.334 35.8106 51.1896 32.6663 46.687 31.4631C46.4484 31.3993 46.1996 31.3832 45.9548 31.4156C45.7101 31.448 45.4741 31.5284 45.2603 31.652C45.0466 31.7756 44.8593 31.9401 44.7091 32.1361C44.5589 32.3321 44.4488 32.5558 44.3851 32.7944C44.3214 33.0329 44.3053 33.2817 44.3377 33.5265C44.3701 33.7712 44.4504 34.0072 44.574 34.221C44.6976 34.4347 44.8622 34.622 45.0582 34.7722C45.2542 34.9224 45.4778 35.0325 45.7164 35.0962ZM64.9726 57.5037C64.5536 60.688 62.9897 63.611 60.5731 65.7266C58.1565 67.8422 55.0524 69.0057 51.8406 69C33.1813 69 18 53.8188 18 35.1597C17.9943 31.9479 19.1579 28.8438 21.2735 26.4272C23.3891 24.0106 26.312 22.4467 29.4964 22.0277C30.3017 21.9294 31.1171 22.0941 31.821 22.4973C32.525 22.9006 33.0796 23.5206 33.4022 24.2649L38.3655 35.3453V35.3735C38.6124 35.9433 38.7144 36.5653 38.6623 37.1841C38.6103 37.8029 38.4057 38.3992 38.067 38.9197C38.0247 38.9831 37.9801 39.0419 37.9331 39.1006L33.0403 44.9005C34.8005 48.4772 38.5417 52.1856 42.1655 53.9504L47.8855 49.0835C47.9417 49.0363 48.0005 48.9924 48.0617 48.9519C48.5818 48.6051 49.1801 48.3934 49.8026 48.3359C50.425 48.2785 51.052 48.3771 51.6267 48.6229L51.6573 48.637L62.7283 53.5979C63.474 53.9193 64.0956 54.4735 64.5001 55.1775C64.9046 55.8815 65.0704 56.6976 64.9726 57.5037ZM61.2408 57.0337C61.2408 57.0337 61.2243 57.0337 61.2149 57.0337L50.1697 52.0869L44.4474 56.9538C44.3919 57.0008 44.3338 57.0447 44.2735 57.0854C43.7324 57.4463 43.1069 57.6608 42.4582 57.7077C41.8094 57.7547 41.1596 57.6326 40.5722 57.3533C36.1705 55.2265 31.783 50.8719 29.6539 46.5173C29.3719 45.9342 29.2454 45.2881 29.2866 44.6417C29.3278 43.9953 29.5352 43.3704 29.8889 42.8278C29.9287 42.7641 29.9735 42.7036 30.0228 42.6468L34.9203 36.8399L29.9852 25.7948C29.9843 25.7854 29.9843 25.776 29.9852 25.7666C27.7063 26.0639 25.6139 27.1817 24.0998 28.9107C22.5858 30.6398 21.7539 32.8614 21.7601 35.1597C21.7688 43.1348 24.9408 50.7807 30.5801 56.42C36.2194 62.0593 43.8654 65.2312 51.8406 65.2399C54.1374 65.2478 56.3585 64.4189 58.0886 62.9082C59.8186 61.3974 60.9392 59.3083 61.2408 57.0313V57.0337Z" fill="white"/>
</svg>
