<svg width="97" height="97" viewBox="0 0 97 97" fill="none" xmlns="http://www.w3.org/2000/svg">
<path d="M62.6143 13.9262C52.1874 13.7177 41.4327 19.6886 38.4827 33.1614C26.4757 29.0632 15.6345 37.1462 16.7607 50.0524C10.4784 52.5918 6.0625 58.7292 6.0625 65.9428C6.0625 75.4414 13.7094 83.0883 23.208 83.0883H44.036C44.0303 77.3158 44.0181 65.7332 44.0181 63.5391L39.1338 65.3093C35.5904 66.8363 32.9733 62.3742 36.0078 59.596L45.2496 50.6146C47.3604 48.5039 49.8816 48.7459 51.7503 50.6146L60.9921 59.596C64.0266 62.3742 61.4096 66.8363 57.8661 65.3093L52.9818 63.5391V83.0883H73.792C83.2906 83.0883 90.9375 75.4414 90.9375 65.9428C90.9375 58.9517 86.7879 52.9754 80.8136 50.301C92.3897 27.7333 77.8535 14.2305 62.6143 13.9262Z" fill="#826AF9"/>
<path d="M62.6142 13.9232C62.0334 13.9118 61.3958 13.9317 60.8144 13.9575C47.497 34.9456 68.0785 50.297 80.8135 50.297C92.3896 27.7292 77.8534 14.2275 62.6142 13.9232Z" fill="#5A33E2"/>
</svg>
